<?xml version="1.0" encoding="utf-8"?>
<!-- Generator: Adobe Illustrator 25.4.1, SVG Export Plug-In . SVG Version: 6.00 Build 0)  -->
<svg version="1.1" id="Layer_1" focusable="false" xmlns="http://www.w3.org/2000/svg" xmlns:xlink="http://www.w3.org/1999/xlink"
	 x="0px" y="0px" viewBox="0 0 512 512" style="enable-background:new 0 0 512 512;" xml:space="preserve">
<style type="text/css">
	.st0{fill:#FFFFFF;}
</style>
<path class="st0" d="M336.1,175c-9.4-9.4-24.6-9.4-33.9,0L256,222.1L208.1,175c-9.4-9.4-24.6-9.4-33.9,0s-9.4,24.6,0,33.9l47,47
	L175,303c-9.4,9.4-9.4,24.6,0,33.9c9.4,9.4,24.6,9.4,33.9,0l47.1-47l47,47c9.4,9.4,24.6,9.4,33.9,0s9.4-24.6,0-33.9l-47-47l47-47
	C346.3,199.6,346.3,184.4,336.1,175z"/>
</svg>
