<?xml version="1.0" encoding="utf-8"?>
<!-- Generator: Adobe Illustrator 25.4.1, SVG Export Plug-In . SVG Version: 6.00 Build 0)  -->
<svg version="1.1" id="Layer_1" xmlns="http://www.w3.org/2000/svg" xmlns:xlink="http://www.w3.org/1999/xlink" x="0px" y="0px"
	 viewBox="0 0 123 108.1" style="enable-background:new 0 0 123 108.1;" xml:space="preserve">
<style type="text/css">
	.st0{fill:#FFFFFF;}
</style>
<path class="st0" d="M70.9,8.8c-2.6-9-15.5-9-18.1,0l-0.6,2.6c-1.3,5.2-6.5,7.8-11.6,6.5c-0.6,0-1.3-0.6-1.9-0.6l-1.9-1.3
	c-8.4-4.5-17.4,4.5-12.9,12.9l1.3,1.9c2.6,5.2,0,11.6-5.8,13.6L16.6,45c-9,2.6-9,15.5,0,18.1l1.9,0.6c5.2,1.3,7.8,6.5,6.5,11.6
	c0,0.6-0.6,1.3-0.6,1.9L23,79.3c-4.5,8.4,4.5,17.4,12.9,12.9l1.9-1.3c4.5-2.6,10.3-0.6,12.9,3.9c0,0.6,0.6,1.3,0.6,1.9l1.3,2.6
	c2.6,9,15.5,9,18.1,0l0.6-1.9c1.3-5.2,6.5-7.8,11.6-6.5c0.6,0,1.3,0.6,1.9,0.6l1.9,1.3c8.4,4.5,17.4-4.5,12.9-12.9L98.7,78
	c-2.6-4.5-0.6-10.3,3.9-12.9c0.6,0,1.3-0.6,1.9-0.6l1.9-0.6c9-2.6,9-15.5,0-18.1l-1.9-0.6c-5.2-1.3-7.8-6.5-6.5-11.6
	c0-0.6,0.6-1.3,0.6-1.9l1.3-1.9c4.5-8.4-4.5-17.4-12.9-12.9l-1.9,1.3c-4.5,2.6-10.3,0.6-12.9-3.9c0-0.6-0.6-1.3-0.6-1.9
	C71.5,11.4,70.9,9.5,70.9,8.8z M61.8,72.8c-10.3,0-18.7-8.4-18.7-18.7s8.4-18.7,18.7-18.7S80.6,43.7,80.6,54S72.2,72.8,61.8,72.8
	L61.8,72.8z"/>
</svg>
